<svg xmlns="http://www.w3.org/2000/svg" xmlns:xlink="http://www.w3.org/1999/xlink" width="13" height="17"><defs><path id="a" d="M752 67.375a6.194 6.194 0 0 1-1.234 3.7c-.013.025-.015.053-.031.077l-4.334 6.375c-.2.296-.54.473-.901.473-.362 0-.7-.177-.901-.473l-4.334-6.375c-.016-.024-.018-.052-.031-.077a6.193 6.193 0 0 1-1.234-3.7c0-3.52 2.91-6.375 6.5-6.375s6.5 2.855 6.5 6.375zm-2.167 0c0-2.347-1.94-4.25-4.333-4.25-2.393 0-4.333 1.903-4.333 4.25 0 1.071.677 2.125 1.083 2.866l3.25 4.782 3.25-4.782c.527-.74 1.083-1.795 1.083-2.866zm-2.166 0c0 1.174-.97 2.125-2.167 2.125-1.197 0-2.167-.951-2.167-2.125s.97-2.125 2.167-2.125c1.197 0 2.167.951 2.167 2.125z"/></defs><use fill="#f44336" xlink:href="#a" transform="translate(-739 -61)"/></svg>