<svg xmlns="http://www.w3.org/2000/svg" xmlns:xlink="http://www.w3.org/1999/xlink" width="15" height="20"><defs><path id="a" d="M1420 868.478v8.156c0 1.304-1.007 2.365-2.245 2.365h-10.51c-1.238 0-2.245-1.061-2.245-2.365v-8.156c0-1.275.963-2.317 2.163-2.362v-1.498c0-3.098 2.394-5.62 5.337-5.62 2.942 0 5.336 2.522 5.336 5.62v1.498c1.2.045 2.164 1.087 2.164 2.362zm-10.82-3.86v1.495h6.639v-1.495c0-1.927-1.49-3.495-3.32-3.495-1.83 0-3.318 1.568-3.318 3.495zm8.802 3.86c0-.13-.104-.24-.227-.24L1417 868h-9l-.755.239c-.124 0-.228.11-.228.239v8.156c0 .13-.14.366-.017.366h11c.123 0-.018-.236-.018-.366zm-4.072 3.433c0 .402-.153.767-.401 1.035v1.04c0 .587-.452 1.062-1.01 1.062-.556 0-1.008-.475-1.008-1.062v-1.04a1.52 1.52 0 0 1-.402-1.035c0-.818.634-1.486 1.41-1.486.778 0 1.411.668 1.411 1.486z"/></defs><use fill="#cbcace" xlink:href="#a" transform="translate(-1405 -859)"/></svg>