<svg xmlns="http://www.w3.org/2000/svg" xmlns:xlink="http://www.w3.org/1999/xlink" width="17" height="17"><defs><path id="a" d="M1147.221 72.094l-1.301 1.303a.94.94 0 0 1-1.333 0 .945.945 0 0 1 0-1.336l1.659-1.66a.94.94 0 0 1 .85-.258l4.146.83c.44.089.758.477.758.927v4.98c0 .437-.3.817-.724.918-3.197.762-7.761-.495-11.662-4.402-3.903-3.905-5.155-8.477-4.394-11.68a.943.943 0 0 1 .918-.726h4.974c.449 0 .836.318.924.76l.83 4.15a.946.946 0 0 1-.258.852l-1.164 1.165a9.88 9.88 0 0 0 2.072 2.534.945.945 0 0 1 .093 1.332.94.94 0 0 1-1.33.093 11.932 11.932 0 0 1-2.84-3.712.944.944 0 0 1 .177-1.086l1.302-1.303-.579-2.897h-3.408c-.276 2.543.889 6.055 4.014 9.183 3.127 3.13 6.631 4.299 9.17 4.024v-3.412zm4.779-5.438a.943.943 0 1 1-1.885 0 3.774 3.774 0 0 0-3.77-3.778.943.943 0 0 1 0-1.888 5.659 5.659 0 0 1 5.655 5.663zm-2.827 0a.943.943 0 1 1-1.885 0 .943.943 0 0 0-.942-.946h-.001a.943.943 0 0 1 0-1.888 2.83 2.83 0 0 1 2.828 2.831v.003z"/></defs><use fill="#f44336" xlink:href="#a" transform="translate(-1135 -61)"/></svg>